<svg xmlns="http://www.w3.org/2000/svg" xmlns:xlink="http://www.w3.org/1999/xlink" viewBox="0 0 453.53 477.5"><defs><style>.cls-1{fill:url(#Gradiente_sem_nome_26);}</style><linearGradient id="Gradiente_sem_nome_26" x1="1378.17" y1="79.29" x2="1701.05" y2="419.54" gradientTransform="translate(-1285.78 21.04)" gradientUnits="userSpaceOnUse"><stop offset="0" stop-color="#02fe85"/><stop offset="0.27" stop-color="#05dbf2"/><stop offset="0.61" stop-color="#fa26ad"/><stop offset="1" stop-color="#00163d"/></linearGradient></defs><title>Ícone degradê 1 SVG RGB</title><g id="Camada_2" data-name="Camada 2"><path class="cls-1" d="M351.65,163.12l-19.58-10-74.31,56.56-1.2-.62,2.08-93.36-19.58-10,0,124.09,12.24,6.24ZM105.75,314.38l19.58,10,74.32-56.56,1.2.62-2.08,93.36,19.58,10,0-124.09-12.24-6.24Zm112.42-84.54,0-124.09-19.58,10,2.08,93.36-1.2.62-74.32-56.56-19.58,10,100.38,73Zm20.66,17.82,0,124.09,19.59-10-2.08-93.36,1.2-.62,74.31,56.57,19.59-10-100.39-73Z"/></g></svg>