<svg width="247" height="267" viewBox="0 0 247 267" fill="none" xmlns="http://www.w3.org/2000/svg">
<path d="M145.91 131.2L133.67 125V0.910004L153.26 10.91L151.18 105L150.27 103.77L153.33 105.32H151.79L226.71 48.32L246.29 58.32L145.91 131.2Z" fill="white"/>
<path d="M145.71 136.55L133.47 142.78V266.88L153.06 256.88L151 162.77L150.09 164L153.15 162.45H151.61L226.53 219.45L246.11 209.45L145.71 136.55Z" fill="white"/>
<path d="M100.57 131.2L112.81 125V0.910004L93.23 10.91L95.3 105L96.21 103.77L93.16 105.32H94.69L19.77 48.32L0.190002 58.32L100.57 131.2Z" fill="white"/>
<path d="M100.77 136.55L113 142.78V266.88L93.42 256.88L95.51 162.75L96.42 163.98L93.36 162.43H94.9L19.98 219.43L0.400024 209.43L100.77 136.55Z" fill="white"/>
</svg>
